<svg viewBox="0 0 716.6923217773438 400" xmlns="http://www.w3.org/2000/svg"><g><g><g><g><g><line x1="50" y1="366" x2="45" y2="366" style="visibility: inherit;" fill="rgb(0, 0, 0)" stroke="rgb(204, 204, 204)" stroke-width="1px"></line><line x1="50" y1="329.40000000000003" x2="45" y2="329.40000000000003" style="visibility: inherit;" fill="rgb(0, 0, 0)" stroke="rgb(204, 204, 204)" stroke-width="1px"></line><line x1="50" y1="292.8" x2="45" y2="292.8" style="visibility: inherit;" fill="rgb(0, 0, 0)" stroke="rgb(204, 204, 204)" stroke-width="1px"></line><line x1="50" y1="256.20000000000005" x2="45" y2="256.20000000000005" style="visibility: inherit;" fill="rgb(0, 0, 0)" stroke="rgb(204, 204, 204)" stroke-width="1px"></line><line x1="50" y1="219.60000000000002" x2="45" y2="219.60000000000002" style="visibility: inherit;" fill="rgb(0, 0, 0)" stroke="rgb(204, 204, 204)" stroke-width="1px"></line><line x1="50" y1="183" x2="45" y2="183" style="visibility: inherit;" fill="rgb(0, 0, 0)" stroke="rgb(204, 204, 204)" stroke-width="1px"></line><line x1="50" y1="146.40000000000006" x2="45" y2="146.40000000000006" style="visibility: inherit;" fill="rgb(0, 0, 0)" stroke="rgb(204, 204, 204)" stroke-width="1px"></line><line x1="50" y1="109.80000000000001" x2="45" y2="109.80000000000001" style="visibility: inherit;" fill="rgb(0, 0, 0)" stroke="rgb(204, 204, 204)" stroke-width="1px"></line><line x1="50" y1="73.20000000000005" x2="45" y2="73.20000000000005" style="visibility: inherit;" fill="rgb(0, 0, 0)" stroke="rgb(204, 204, 204)" stroke-width="1px"></line><line x1="50" y1="36.60000000000002" x2="45" y2="36.60000000000002" style="visibility: inherit;" fill="rgb(0, 0, 0)" stroke="rgb(204, 204, 204)" stroke-width="1px"></line><line x1="50" y1="0" x2="45" y2="0" style="visibility: inherit;" fill="rgb(0, 0, 0)" stroke="rgb(204, 204, 204)" stroke-width="1px"></line></g><g transform="translate(40, 0)"><text x="0" y="366" dx="0em" dy="0.3em" style="text-anchor: end; visibility: hidden; font-family: &quot;Helvetica Neue&quot;, sans-serif; font-size: 12px; font-weight: 200;" fill="rgb(50, 49, 63)" stroke="none" stroke-width="1px">0.55</text><text x="0" y="329.40000000000003" dx="0em" dy="0.3em" style="text-anchor: end; visibility: inherit; font-family: &quot;Helvetica Neue&quot;, sans-serif; font-size: 12px; font-weight: 200;" fill="rgb(50, 49, 63)" stroke="none" stroke-width="1px">0.6</text><text x="0" y="292.8" dx="0em" dy="0.3em" style="text-anchor: end; visibility: inherit; font-family: &quot;Helvetica Neue&quot;, sans-serif; font-size: 12px; font-weight: 200;" fill="rgb(50, 49, 63)" stroke="none" stroke-width="1px">0.65</text><text x="0" y="256.20000000000005" dx="0em" dy="0.3em" style="text-anchor: end; visibility: inherit; font-family: &quot;Helvetica Neue&quot;, sans-serif; font-size: 12px; font-weight: 200;" fill="rgb(50, 49, 63)" stroke="none" stroke-width="1px">0.7</text><text x="0" y="219.60000000000002" dx="0em" dy="0.3em" style="text-anchor: end; visibility: inherit; font-family: &quot;Helvetica Neue&quot;, sans-serif; font-size: 12px; font-weight: 200;" fill="rgb(50, 49, 63)" stroke="none" stroke-width="1px">0.75</text><text x="0" y="183" dx="0em" dy="0.3em" style="text-anchor: end; visibility: inherit; font-family: &quot;Helvetica Neue&quot;, sans-serif; font-size: 12px; font-weight: 200;" fill="rgb(50, 49, 63)" stroke="none" stroke-width="1px">0.8</text><text x="0" y="146.40000000000006" dx="0em" dy="0.3em" style="text-anchor: end; visibility: inherit; font-family: &quot;Helvetica Neue&quot;, sans-serif; font-size: 12px; font-weight: 200;" fill="rgb(50, 49, 63)" stroke="none" stroke-width="1px">0.85</text><text x="0" y="109.80000000000001" dx="0em" dy="0.3em" style="text-anchor: end; visibility: inherit; font-family: &quot;Helvetica Neue&quot;, sans-serif; font-size: 12px; font-weight: 200;" fill="rgb(50, 49, 63)" stroke="none" stroke-width="1px">0.9</text><text x="0" y="73.20000000000005" dx="0em" dy="0.3em" style="text-anchor: end; visibility: inherit; font-family: &quot;Helvetica Neue&quot;, sans-serif; font-size: 12px; font-weight: 200;" fill="rgb(50, 49, 63)" stroke="none" stroke-width="1px">0.95</text><text x="0" y="36.60000000000002" dx="0em" dy="0.3em" style="text-anchor: end; visibility: inherit; font-family: &quot;Helvetica Neue&quot;, sans-serif; font-size: 12px; font-weight: 200;" fill="rgb(50, 49, 63)" stroke="none" stroke-width="1px">1</text><text x="0" y="0" dx="0em" dy="0.3em" style="text-anchor: end; visibility: hidden; font-family: &quot;Helvetica Neue&quot;, sans-serif; font-size: 12px; font-weight: 200;" fill="rgb(50, 49, 63)" stroke="none" stroke-width="1px">1.05</text></g><line x1="50" y1="0" x2="50" y2="366" fill="rgb(0, 0, 0)" stroke="rgb(204, 204, 204)" stroke-width="1px"></line></g></g><g transform="translate(50, 0)" clip-path="url(#clip_0)"><clipPath id="clip_0"><rect width="666" height="366"></rect></clipPath><g><g><g><line x1="0" y1="0" x2="0" y2="366" fill="rgb(0, 0, 0)" stroke="rgb(60, 60, 60)" stroke-width="1px" opacity="0.25"></line><line x1="83.3365" y1="0" x2="83.3365" y2="366" fill="rgb(0, 0, 0)" stroke="rgb(60, 60, 60)" stroke-width="1px" opacity="0.25"></line><line x1="166.673" y1="0" x2="166.673" y2="366" fill="rgb(0, 0, 0)" stroke="rgb(60, 60, 60)" stroke-width="1px" opacity="0.25"></line><line x1="250.0095" y1="0" x2="250.0095" y2="366" fill="rgb(0, 0, 0)" stroke="rgb(60, 60, 60)" stroke-width="1px" opacity="0.25"></line><line x1="333.346" y1="0" x2="333.346" y2="366" fill="rgb(0, 0, 0)" stroke="rgb(60, 60, 60)" stroke-width="1px" opacity="0.25"></line><line x1="416.6825" y1="0" x2="416.6825" y2="366" fill="rgb(0, 0, 0)" stroke="rgb(60, 60, 60)" stroke-width="1px" opacity="0.25"></line><line x1="500.019" y1="0" x2="500.019" y2="366" fill="rgb(0, 0, 0)" stroke="rgb(60, 60, 60)" stroke-width="1px" opacity="0.25"></line><line x1="583.3555" y1="0" x2="583.3555" y2="366" fill="rgb(0, 0, 0)" stroke="rgb(60, 60, 60)" stroke-width="1px" opacity="0.25"></line><line x1="666.692" y1="0" x2="666.692" y2="366" fill="rgb(0, 0, 0)" stroke="rgb(60, 60, 60)" stroke-width="1px" opacity="0.25"></line></g><g><line x1="0" y1="366" x2="666.692" y2="366" fill="rgb(0, 0, 0)" stroke="rgb(60, 60, 60)" stroke-width="1px" opacity="0.25"></line><line x1="0" y1="329.40000000000003" x2="666.692" y2="329.40000000000003" fill="rgb(0, 0, 0)" stroke="rgb(60, 60, 60)" stroke-width="1px" opacity="0.25"></line><line x1="0" y1="292.8" x2="666.692" y2="292.8" fill="rgb(0, 0, 0)" stroke="rgb(60, 60, 60)" stroke-width="1px" opacity="0.25"></line><line x1="0" y1="256.20000000000005" x2="666.692" y2="256.20000000000005" fill="rgb(0, 0, 0)" stroke="rgb(60, 60, 60)" stroke-width="1px" opacity="0.25"></line><line x1="0" y1="219.60000000000002" x2="666.692" y2="219.60000000000002" fill="rgb(0, 0, 0)" stroke="rgb(60, 60, 60)" stroke-width="1px" opacity="0.25"></line><line x1="0" y1="183" x2="666.692" y2="183" fill="rgb(0, 0, 0)" stroke="rgb(60, 60, 60)" stroke-width="1px" opacity="0.25"></line><line x1="0" y1="146.40000000000006" x2="666.692" y2="146.40000000000006" fill="rgb(0, 0, 0)" stroke="rgb(60, 60, 60)" stroke-width="1px" opacity="0.25"></line><line x1="0" y1="109.80000000000001" x2="666.692" y2="109.80000000000001" fill="rgb(0, 0, 0)" stroke="rgb(60, 60, 60)" stroke-width="1px" opacity="0.25"></line><line x1="0" y1="73.20000000000005" x2="666.692" y2="73.20000000000005" fill="rgb(0, 0, 0)" stroke="rgb(60, 60, 60)" stroke-width="1px" opacity="0.25"></line><line x1="0" y1="36.60000000000002" x2="666.692" y2="36.60000000000002" fill="rgb(0, 0, 0)" stroke="rgb(60, 60, 60)" stroke-width="1px" opacity="0.25"></line><line x1="0" y1="0" x2="666.692" y2="0" fill="rgb(0, 0, 0)" stroke="rgb(60, 60, 60)" stroke-width="1px" opacity="0.25"></line></g></g></g><g><g><line x1="0" y1="768.6" x2="666.692" y2="768.6" fill="rgb(0, 0, 0)" stroke="rgb(153, 153, 153)" stroke-width="1.5px"></line></g></g><g><g><line x1="-442612151.95600003" y1="0" x2="-442612151.95600003" y2="366" fill="rgb(0, 0, 0)" stroke="rgb(153, 153, 153)" stroke-width="1.5px"></line></g></g><g><g><g><g><g><path stroke="rgb(238, 51, 119)" stroke-width="2px" d="M81.71671622833334,253.7813900470734L90.88762026500001,250.38793832659724L100.03880133,243.30510867177225L109.08386725166667,241.5413409311982L118.19087997166666,238.07269650319654L127.38122919166668,235.34418126618053L136.60852426,234.1971382494964L145.679702285,233.5298138149025L154.83393902166665,233.13666561407055L164.83487459833333,232.70468953645903L174.039113235,232.6453377485161L182.44165474166667,240.5245985306016L187.85241589833333,242.47342819682444L193.084836945,242.6531180949613L198.29753502,239.7978908712457L203.45995340666667,242.8254611693093L208.63515005666667,239.507203148569L213.76145596,237.91152233110387L218.89442878333335,235.9669714497498L224.09240407666667,234.20798352962555L229.217876615,233.7449565045638L234.35084943833334,232.87482742111186L239.54771357833334,232.15531855063955L244.67207496333333,231.9210549915145L250.62424558166666,231.78049756646072L255.82972116000002,231.6961633671787L260.97130542166667,231.645562939679L266.14039072833333,231.61520271632426L272.70702914,243.0483653443712L276.0152104016667,247.93388787854224L279.31533580166666,245.1395039568079L282.6101832233333,239.51412970653166L285.8586399933333,239.8902122512099L289.1690435616667,236.75942942319577L292.44639031833333,234.68352258939208L295.7181813083333,234.03029009108698L298.98302759,233.44091340418467L304.190725475,253.4233530483501L306.4105320466667,253.96144223105733L308.58839258,253.69198416609396L310.7440300466667,256.6893043860326L312.91883490833334,250.59019142003575L315.1097514933333,244.75891454058433L317.28872318,243.0370831333846L319.4660281366667,241.60910990719555L321.684723555,239.76514001646802L323.8836960016667,238.65875808210507L326.08600190833334,237.79749173049976L343.30637848,238.0704806835977L356.61855099,233.89065585320955L369.96294694666665,232.76482129207167L383.2592855216667,224.98156422678903L396.57312476166663,220.50904717864367L409.81057221,217.43066256774216L423.93888684333336,215.58363180120318L437.35828565,215.46259929632856L450.8010186766667,215.58741698441338L464.45264853000003,215.66230759726426L478.1192789533333,215.70724196497488L489.39442961500004,225.60607958831775L497.35889891999994,224.0427514517211L505.4014267466667,221.92013142370598L513.7006309933333,223.0158231512512L521.487315765,224.2655497608069L529.309279655,225.41026010855933L537.0948532733333,225.50477474418216L544.8929273666666,225.3640463345465L553.315191845,232.58478535611735L558.3720506650001,233.7582337129075L563.3600179783333,230.7109960978007L568.3729862416667,229.08009071974604L573.2778948433333,225.5348465575495L578.1503022100001,223.21026286922205L583.2993867566666,223.1975729932923L588.3179107866667,224.3745996660316L593.3964370966667,224.09361226238758L598.7227506,223.92501982020107L603.6051583466667,223.82386435488922L609.8492845033334,242.3223193873171L613.1438541366666,241.18025165970352L616.434256945,237.73089034900204L619.6891028466666,235.2663991805621L622.97033864,227.86457129697246L626.2237956,224.80553490388542L629.4800304433334,223.36498745005227L632.76071066,221.71091021371424L636.0263903066667,221.70564982695902L639.3215155166668,221.5050564038964" style="fill: none;" fill="none"></path></g><g><path stroke="rgb(51, 187, 238)" stroke-width="2px" d="M81.71616065166667,286.6084426403046L90.88734247666667,253.42829850912096L100.03852354166666,229.35025661624204L109.08358946333334,208.91198933369975L118.19060218333333,181.0840068863466L127.38095140333334,161.1777795265492L136.60824647166666,147.7116770005791L145.67942449666666,135.50757070540138L154.83366123333334,126.57158248110869L164.83459681,119.23088333950415L174.03883544666667,116.0445242125179L182.441099165,186.69555431631161L187.85213811,209.20802917986467L193.08455915666667,212.6637989198625L198.29725723166666,206.68208644654857L203.45967561833334,195.5369196140379L208.63487226833334,175.66396133751795L213.76117817166667,159.64302022042295L218.89415099500002,144.89521661446844L224.09212628833333,137.6274677333744L229.217876615,131.24218752460837L234.35057165,127.75679011501748L239.54743579,125.5174277944594L244.67207496333333,124.56890740149308L250.62396779333332,123.45656062355471L255.82944337166668,121.40639379534937L260.97102763333334,121.26275134473153L266.14011294,121.22595583795402L272.70675135166664,194.63848116351664L276.0149326133334,214.98146884009785L279.3150580133333,216.56961103742194L282.609905435,211.94205477878933L285.858362205,201.017104923253L289.16876577333335,185.0297229260397L292.44611253,171.8816094886134L295.71790352,160.43707451524872L298.98274980166667,155.4469580800615L304.19016989833335,227.12207043507277L306.41025425833334,243.11387992332007L308.58811479166667,240.9554927727316L310.7440300466667,234.6726277432555L312.91855712,220.53219434544735L315.10947370499997,210.91209017550514L317.28872318,203.70787940923074L319.4660281366667,197.409986262285L321.684723555,192.89047259586474L323.88341821333336,189.5367662958882L326.08572412,187.27762822459528L343.3061006916667,222.1209009327242L356.6182732016667,211.86531413056596L369.96266915833337,185.31620980999793L383.2590077333333,148.3983867173427L396.57284697333336,121.80309599901753L409.8102944216667,101.64825644887674L423.938609055,88.1232044529662L437.3580078616667,79.31678531597191L450.80074088833334,74.82308399933561L464.45237074166664,72.37379495297631L478.11900116500004,70.21283358570781L489.39387403833337,152.82032637976127L497.35889891999994,172.11218402136927L505.40114895833335,165.3656927332255L513.700353205,146.4037244930845L521.4870379766667,120.11245262950538L529.3090018666667,99.89311010080496L537.094575485,87.26765854858104L544.8929273666666,79.14915174307095L553.3146362683333,163.26871223724888L558.3720506650001,182.97396446393137L563.35974019,178.69780835822948L568.3727084533333,162.15634345838856L573.277617055,135.19385484593775L578.1500244216667,115.75698133789106L583.2991089683333,104.29239913751252L588.3176329983334,92.91968056756008L593.3961593083334,84.51574909447282L598.7224728116666,80.31291276311066L603.6048805583333,77.59368651208393L609.8487289266667,177.94089450536438L613.1435763483333,203.53076408206388L616.4339791566666,201.69892409026005L619.6888250583334,188.05617967235668L622.9700608516666,168.70966847769984L626.2237956,147.61995977421145L629.4800304433334,125.92878876125542L632.7604328716667,110.00041723487215L636.0263903066667,100.64091877125173L639.3212377283334,94.13630730141682" style="fill: none;" fill="none"></path></g></g></g></g><g opacity="0.2"><g><g><g><path stroke="rgb(238, 51, 119)" stroke-width="2px" d="M81.71671622833334,253.7813900470734L90.88762026500001,248.35186729431155L100.03880133,236.50559220314028L109.08386725166667,239.4671500682831L118.19087997166666,233.54403433799746L127.38122919166668,231.56966242790224L136.60852426,232.55684838294985L145.679702285,232.55684838294985L154.83393902166665,232.55684838294985L164.83487459833333,232.06325540542605L174.039113235,232.55684838294985L182.44165474166667,252.30061111450198L187.85241589833333,245.39030942916872L193.084836945,242.92230091094973L198.29753502,235.51840624809267L203.45995340666667,247.36468133926394L208.63515005666667,234.53122029304507L213.76145596,235.51840624809267L218.89442878333335,233.05044136047366L224.09240407666667,231.56966242790224L229.217876615,233.05044136047366L234.35084943833334,231.56966242790224L239.54771357833334,231.07606945037844L244.67207496333333,231.56966242790224L250.62424558166666,231.56966242790224L255.82972116000002,231.56966242790224L260.97130542166667,231.56966242790224L266.14039072833333,231.56966242790224L272.70702914,260.19809875488284L276.0152104016667,255.2621689796448L279.31533580166666,240.94792900085451L282.6101832233333,231.07606945037844L285.8586399933333,240.4543360233307L289.1690435616667,232.06325540542605L292.44639031833333,231.56966242790224L295.7181813083333,233.05044136047366L298.98302759,232.55684838294985L304.190725475,283.3970123291016L306.4105320466667,254.768576002121L308.58839258,253.28779706954958L310.7440300466667,261.18528470993044L312.91883490833334,241.44152197837832L315.1097514933333,236.01199922561648L317.28872318,240.4543360233307L319.4660281366667,239.4671500682831L321.684723555,236.99918518066409L323.8836960016667,236.99918518066409L326.08600190833334,236.50559220314028L343.30637848,238.4799641132355L356.61855099,227.62091860771181L369.96294694666665,231.07606945037844L383.2592855216667,213.30667862892153L396.57312476166663,213.80027160644534L409.81057221,212.81308565139773L423.93888684333336,212.81308565139773L437.35828565,215.28105053901675L450.8010186766667,215.77464351654055L464.45264853000003,215.77464351654055L478.1192789533333,215.77464351654055L489.39442961500004,240.4543360233307L497.35889891999994,221.6977592468262L505.4014267466667,218.73620138168337L513.7006309933333,224.659360742569L521.487315765,226.1401396751404L529.309279655,227.127325630188L537.0948532733333,225.6465466976166L544.8929273666666,225.1529537200928L553.315191845,243.41589388847353L558.3720506650001,235.51840624809267L563.3600179783333,226.1401396751404L568.3729862416667,226.6337326526642L573.2778948433333,220.21698031425478L578.1503022100001,219.72338733673098L583.2993867566666,223.1785381793976L588.3179107866667,226.1401396751404L593.3964370966667,223.6721311569214L598.7227506,223.6721311569214L603.6051583466667,223.6721311569214L609.8492845033334,270.0700019359589L613.1438541366666,239.4671500682831L616.434256945,232.55684838294985L619.6891028466666,231.56966242790224L622.97033864,216.76182947158816L626.2237956,220.21698031425478L629.4800304433334,221.2041662693024L632.76071066,219.22979435920718L636.0263903066667,221.6977592468262L639.3215155166668,221.2041662693024" style="fill: none;" fill="none"></path></g><g><path stroke="rgb(51, 187, 238)" stroke-width="2px" d="M81.71616065166667,286.6084426403046L90.88734247666667,233.5202120304108L100.03852354166666,206.2353363990784L109.08358946333334,184.87658700942995L118.19060218333333,144.7517930030823L127.38095140333334,133.64030084609988L136.60824647166666,128.45493493080141L145.67942449666666,117.71386656761172L154.83366123333334,113.39273557662966L164.83459681,108.33080062866213L174.03883544666667,111.2938855648041L182.441099165,292.28761968612673L187.85213811,242.9032343387604L193.08455915666667,217.84068331718447L198.29725723166666,197.7165490150452L203.45967561833334,178.82702980041506L208.63487226833334,145.86293349266055L213.76117817166667,135.61567625999453L218.89415099500002,122.77575788497927L224.09212628833333,126.72650871276858L229.217876615,121.66461739540102L234.35057165,122.52880868911745L239.54743579,122.1584285259247L244.67207496333333,123.14613804817202L250.62396779333332,121.78804836273196L255.82944337166668,118.3311522960663L260.97102763333334,121.04728803634646L266.14011294,121.17076263427737L272.70675135166664,304.7572015285492L276.0149326133334,245.49593911170962L279.3150580133333,218.95182380676272L282.609905435,205.00072131156924L285.858362205,184.6296814441681L289.16876577333335,161.04865107536318L292.44611253,152.15943989753725L295.71790352,143.2702723503113L298.98274980166667,147.9617835044861L304.19016989833335,334.63473830223086L306.41025425833334,267.1015940666199L308.58811479166667,237.7179120540619L310.7440300466667,225.24833021163943L312.91855712,199.3215442657471L315.10947370499997,196.48193392753603L317.28872318,192.90156326293948L319.4660281366667,187.96314654350283L321.684723555,186.1112020969391L323.88341821333336,184.5062068462372L326.08572412,183.88892111778262L343.3061006916667,274.3858099937439L356.6182732016667,196.48193392753603L369.96266915833337,145.4925533294678L383.2590077333333,93.02165207862856L396.57284697333336,81.91015992164614L409.8102944216667,71.41599712371828L423.938609055,67.83562645912173L437.3580078616667,66.10715661048891L450.80074088833334,68.08253202438357L464.45237074166664,68.69986138343813L478.11900116500004,66.97139153480532L489.39387403833337,276.7315655708313L497.35889891999994,201.04997048377993L505.40114895833335,155.24595580101015L513.700353205,117.96077213287356L521.4870379766667,80.67554483413699L529.3090018666667,69.56409630775454L537.094575485,68.32948122024538L544.8929273666666,66.97139153480532L553.3146362683333,289.44805297851565L558.3720506650001,212.5318428039551L563.35974019,172.28357419967654L568.3727084533333,137.34414610862734L573.277617055,94.75012192726138L578.1500244216667,86.60167107582095L583.2991089683333,87.0955258369446L588.3176329983334,75.86060271263125L593.3961593083334,71.90985188484194L598.7224728116666,74.00865826606753L603.6048805583333,73.51484713554385L609.8487289266667,328.46170649528506L613.1435763483333,241.91556844711306L616.4339791566666,198.95116410255434L619.6888250583334,167.59206304550173L622.9700608516666,139.68990168571474L626.2237956,115.9853967189789L629.4800304433334,93.39203224182131L632.7604328716667,86.10785994529726L636.0263903066667,86.60167107582095L639.3212377283334,84.37939009666445" style="fill: none;" fill="none"></path></g></g></g></g></g></g><g transform="translate(50, 366)" clip-path="url(#clip_1)"><clipPath id="clip_1"><rect width="666" height="34"></rect></clipPath><g><g visibility="inherit"><g><g transform="translate(0,0)" style="visibility: inherit;"><text transform="translate(3,14)" style="text-anchor: start; font-family: &quot;Helvetica Neue&quot;, sans-serif; font-size: 12px; font-weight: 200;" fill="rgb(50, 49, 63)" stroke="none" stroke-width="1px">04:50 PM</text></g><g transform="translate(83.3365,0)" style="visibility: inherit;"><text transform="translate(3,14)" style="text-anchor: start; font-family: &quot;Helvetica Neue&quot;, sans-serif; font-size: 12px; font-weight: 200;" fill="rgb(50, 49, 63)" stroke="none" stroke-width="1px">04:55 PM</text></g><g transform="translate(166.673,0)" style="visibility: inherit;"><text transform="translate(3,14)" style="text-anchor: start; font-family: &quot;Helvetica Neue&quot;, sans-serif; font-size: 12px; font-weight: 200;" fill="rgb(50, 49, 63)" stroke="none" stroke-width="1px">05:00 PM</text></g><g transform="translate(250.0095,0)" style="visibility: inherit;"><text transform="translate(3,14)" style="text-anchor: start; font-family: &quot;Helvetica Neue&quot;, sans-serif; font-size: 12px; font-weight: 200;" fill="rgb(50, 49, 63)" stroke="none" stroke-width="1px">05:05 PM</text></g><g transform="translate(333.346,0)" style="visibility: inherit;"><text transform="translate(3,14)" style="text-anchor: start; font-family: &quot;Helvetica Neue&quot;, sans-serif; font-size: 12px; font-weight: 200;" fill="rgb(50, 49, 63)" stroke="none" stroke-width="1px">05:10 PM</text></g><g transform="translate(416.6825,0)" style="visibility: inherit;"><text transform="translate(3,14)" style="text-anchor: start; font-family: &quot;Helvetica Neue&quot;, sans-serif; font-size: 12px; font-weight: 200;" fill="rgb(50, 49, 63)" stroke="none" stroke-width="1px">05:15 PM</text></g><g transform="translate(500.019,0)" style="visibility: inherit;"><text transform="translate(3,14)" style="text-anchor: start; font-family: &quot;Helvetica Neue&quot;, sans-serif; font-size: 12px; font-weight: 200;" fill="rgb(50, 49, 63)" stroke="none" stroke-width="1px">05:20 PM</text></g><g transform="translate(583.3555,0)" style="visibility: inherit;"><text transform="translate(3,14)" style="text-anchor: start; font-family: &quot;Helvetica Neue&quot;, sans-serif; font-size: 12px; font-weight: 200;" fill="rgb(50, 49, 63)" stroke="none" stroke-width="1px">05:25 PM</text></g><g transform="translate(666.692,0)" style="visibility: hidden;"><text transform="translate(3,14)" style="text-anchor: start; font-family: &quot;Helvetica Neue&quot;, sans-serif; font-size: 12px; font-weight: 200;" fill="rgb(50, 49, 63)" stroke="none" stroke-width="1px">05:30 PM</text></g></g><g><line x1="0" y1="0" x2="0" y2="17" fill="rgb(0, 0, 0)" stroke="rgb(204, 204, 204)" stroke-width="1px"></line><line x1="83.3365" y1="0" x2="83.3365" y2="17" fill="rgb(0, 0, 0)" stroke="rgb(204, 204, 204)" stroke-width="1px"></line><line x1="166.673" y1="0" x2="166.673" y2="17" fill="rgb(0, 0, 0)" stroke="rgb(204, 204, 204)" stroke-width="1px"></line><line x1="250.0095" y1="0" x2="250.0095" y2="17" fill="rgb(0, 0, 0)" stroke="rgb(204, 204, 204)" stroke-width="1px"></line><line x1="333.346" y1="0" x2="333.346" y2="17" fill="rgb(0, 0, 0)" stroke="rgb(204, 204, 204)" stroke-width="1px"></line><line x1="416.6825" y1="0" x2="416.6825" y2="17" fill="rgb(0, 0, 0)" stroke="rgb(204, 204, 204)" stroke-width="1px"></line><line x1="500.019" y1="0" x2="500.019" y2="17" fill="rgb(0, 0, 0)" stroke="rgb(204, 204, 204)" stroke-width="1px"></line><line x1="583.3555" y1="0" x2="583.3555" y2="17" fill="rgb(0, 0, 0)" stroke="rgb(204, 204, 204)" stroke-width="1px"></line><line x1="666.692" y1="0" x2="666.692" y2="17" fill="rgb(0, 0, 0)" stroke="rgb(204, 204, 204)" stroke-width="1px"></line></g><line x1="0" y1="0" x2="666.692" y2="0" style="visibility: inherit;" fill="rgb(0, 0, 0)" stroke="rgb(204, 204, 204)" stroke-width="1px"></line></g><g visibility="inherit"><g><g transform="translate(41.66825,0)" style="visibility: inherit;"><text transform="translate(0,31)" style="text-anchor: middle; font-family: &quot;Helvetica Neue&quot;, sans-serif; font-size: 12px; font-weight: 200;" fill="rgb(50, 49, 63)" stroke="none" stroke-width="1px">June 28, 2020</text></g><g transform="translate(125.00475,0)" style="visibility: inherit;"><text transform="translate(0,31)" style="text-anchor: middle; font-family: &quot;Helvetica Neue&quot;, sans-serif; font-size: 12px; font-weight: 200;" fill="rgb(50, 49, 63)" stroke="none" stroke-width="1px">June 28, 2020</text></g><g transform="translate(208.34125,0)" style="visibility: inherit;"><text transform="translate(0,31)" style="text-anchor: middle; font-family: &quot;Helvetica Neue&quot;, sans-serif; font-size: 12px; font-weight: 200;" fill="rgb(50, 49, 63)" stroke="none" stroke-width="1px">June 28, 2020</text></g><g transform="translate(291.67775,0)" style="visibility: inherit;"><text transform="translate(0,31)" style="text-anchor: middle; font-family: &quot;Helvetica Neue&quot;, sans-serif; font-size: 12px; font-weight: 200;" fill="rgb(50, 49, 63)" stroke="none" stroke-width="1px">June 28, 2020</text></g><g transform="translate(375.01425,0)" style="visibility: inherit;"><text transform="translate(0,31)" style="text-anchor: middle; font-family: &quot;Helvetica Neue&quot;, sans-serif; font-size: 12px; font-weight: 200;" fill="rgb(50, 49, 63)" stroke="none" stroke-width="1px">June 28, 2020</text></g><g transform="translate(458.35075,0)" style="visibility: inherit;"><text transform="translate(0,31)" style="text-anchor: middle; font-family: &quot;Helvetica Neue&quot;, sans-serif; font-size: 12px; font-weight: 200;" fill="rgb(50, 49, 63)" stroke="none" stroke-width="1px">June 28, 2020</text></g><g transform="translate(541.68725,0)" style="visibility: inherit;"><text transform="translate(0,31)" style="text-anchor: middle; font-family: &quot;Helvetica Neue&quot;, sans-serif; font-size: 12px; font-weight: 200;" fill="rgb(50, 49, 63)" stroke="none" stroke-width="1px">June 28, 2020</text></g><g transform="translate(625.0237500000001,0)" style="visibility: inherit;"><text transform="translate(0,31)" style="text-anchor: middle; font-family: &quot;Helvetica Neue&quot;, sans-serif; font-size: 12px; font-weight: 200;" fill="rgb(50, 49, 63)" stroke="none" stroke-width="1px">June 28, 2020</text></g></g><g><line x1="0" y1="17" x2="0" y2="34" fill="rgb(0, 0, 0)" stroke="rgb(204, 204, 204)" stroke-width="1px"></line><line x1="83.3365" y1="17" x2="83.3365" y2="34" fill="rgb(0, 0, 0)" stroke="rgb(204, 204, 204)" stroke-width="1px"></line><line x1="166.673" y1="17" x2="166.673" y2="34" fill="rgb(0, 0, 0)" stroke="rgb(204, 204, 204)" stroke-width="1px"></line><line x1="250.0095" y1="17" x2="250.0095" y2="34" fill="rgb(0, 0, 0)" stroke="rgb(204, 204, 204)" stroke-width="1px"></line><line x1="333.346" y1="17" x2="333.346" y2="34" fill="rgb(0, 0, 0)" stroke="rgb(204, 204, 204)" stroke-width="1px"></line><line x1="416.6825" y1="17" x2="416.6825" y2="34" fill="rgb(0, 0, 0)" stroke="rgb(204, 204, 204)" stroke-width="1px"></line><line x1="500.019" y1="17" x2="500.019" y2="34" fill="rgb(0, 0, 0)" stroke="rgb(204, 204, 204)" stroke-width="1px"></line><line x1="583.3555" y1="17" x2="583.3555" y2="34" fill="rgb(0, 0, 0)" stroke="rgb(204, 204, 204)" stroke-width="1px"></line><line x1="666.692" y1="17" x2="666.692" y2="34" fill="rgb(0, 0, 0)" stroke="rgb(204, 204, 204)" stroke-width="1px"></line></g><line x1="0" y1="17" x2="666.692" y2="17" style="visibility: inherit;" fill="rgb(0, 0, 0)" stroke="rgb(204, 204, 204)" stroke-width="1px"></line></g></g></g></g></g></svg>